<svg aria-hidden="true" style="position: absolute; width: 0; height: 0; overflow: hidden;" version="1.1" xmlns="http://www.w3.org/2000/svg" xmlns:xlink="http://www.w3.org/1999/xlink">
<defs>
<symbol id="icon-up" viewBox="0 0 32 32">
<path d="M13.92 4.272c-0.224 0.032-0.864 0.208-1.44 0.384-4.992 1.568-8.352 6.112-8.352 11.344-0.016 2.112 0.304 3.472 1.248 5.424 0.624 1.28 0.96 1.728 2.208 2.96 1.648 1.648 2.688 2.32 4.688 3.024 1.312 0.464 1.552 0.496 3.648 0.512 1.904 0 2.416-0.048 3.44-0.368 4.128-1.296 7.168-4.432 8.272-8.512 0.384-1.408 0.384-4.496 0-5.92-1.12-4.224-4.48-7.568-8.672-8.64-1.184-0.304-3.824-0.416-5.040-0.208zM19.488 5.808c1.696 0.592 2.816 1.312 4.208 2.672 2.576 2.56 3.664 6.128 2.928 9.728-1.424 7.12-9.472 10.8-15.904 7.264-0.624-0.336-1.552-1.088-2.336-1.856-3.008-3.040-3.952-7.136-2.56-11.152 0.992-2.864 3.328-5.328 6.048-6.4 1.728-0.672 2.368-0.784 4.448-0.736 1.664 0.048 2.192 0.128 3.168 0.48z"></path>
<path d="M12.912 15.328l-3.008 3.008 0.832 0.768 5.264-5.264 2.64 2.64c2.208 2.208 2.688 2.608 2.912 2.464 0.784-0.496 0.752-0.56-2.352-3.664-1.632-1.632-3.024-2.96-3.12-2.96s-1.52 1.36-3.168 3.008z"></path>
</symbol>
<symbol id="icon-search" viewBox="0 0 32 32">
<path d="M12.844 3.164c-2.631 0.284-4.791 1.298-6.587 3.093-1.564 1.564-2.507 3.36-2.933 5.547-0.204 1.031-0.204 2.836 0 3.867 0.791 4.071 3.76 7.244 7.76 8.302 1.28 0.338 3.413 0.391 4.738 0.116 1.529-0.311 3.058-0.996 4.231-1.884 0.276-0.213 0.56-0.418 0.622-0.471 0.089-0.062 0.222 0.018 0.507 0.293 0.373 0.364 0.391 0.409 0.347 0.773-0.018 0.213-0.009 0.498 0.018 0.64 0.071 0.276 4.809 5.102 5.227 5.324 0.622 0.329 1.476 0.071 1.911-0.578 0.24-0.356 0.276-1.040 0.080-1.413-0.222-0.418-5.049-5.156-5.324-5.227-0.142-0.027-0.427-0.036-0.64-0.018-0.364 0.044-0.409 0.027-0.773-0.347-0.276-0.284-0.356-0.418-0.293-0.507 0.053-0.062 0.258-0.347 0.471-0.622 0.889-1.173 1.573-2.702 1.884-4.231 0.276-1.324 0.222-3.458-0.116-4.738-1.049-3.973-4.258-6.987-8.231-7.742-0.756-0.142-2.311-0.24-2.898-0.178zM15.956 5.244c3.102 0.844 5.404 3.191 6.284 6.382 0.276 0.987 0.276 3.227 0 4.213-0.889 3.236-3.164 5.511-6.4 6.4-0.987 0.276-3.227 0.276-4.213 0-2.693-0.738-4.711-2.409-5.858-4.853-0.604-1.289-0.747-2.018-0.738-3.698 0.009-1.716 0.133-2.329 0.791-3.707 1.173-2.489 3.378-4.24 6.089-4.836 1.049-0.231 3.022-0.187 4.044 0.098z"></path>
<path d="M13.004 6.356c-2.907 0.524-5.404 2.693-6.338 5.511-0.249 0.729-0.498 2.347-0.418 2.676 0.036 0.16 0.036 0.16 0.107-0.009 0.676-1.671 1.769-3.404 2.889-4.604 1.493-1.591 2.916-2.569 5.244-3.6 0.196-0.080 0.151-0.098-0.311-0.089-0.293 0-0.818 0.053-1.173 0.116z"></path>
</symbol>
</defs>
</svg>
